<svg xmlns="http://www.w3.org/2000/svg" viewBox="0 0 256 256">
  <circle cx="128" cy="128" r="120" fill="#25D366"/>
  <path d="M186 70c-15-15-35-23-56-23s-41 8-56 23c-15 15-23 35-23 56 0 14 4 28 11 40L56 216l51-15c12 7 26 11 40 11 21 0 41-8 56-23s23-35 23-56-8-41-23-56zm-58 119c-13 0-26-4-37-11l-2-1-30 9 9-29-2-3c-8-12-12-25-12-39 0-20 8-39 22-53 14-15 33-22 53-22s39 7 53 22c15 14 22 33 22 53s-7 39-22 53c-14 14-33 21-52 21zm41-40c-2-1-13-7-15-8-2-1-4-1-6 1-2 2-7 8-9 9-2 1-3 2-5 1-2-1-9-3-17-11-6-6-11-14-12-16-1-2 0-4 1-5l4-6c1-2 1-3 0-5 0-1-6-16-8-22-2-6-4-5-6-5h-5c-2 0-5 1-7 3-2 2-9 8-9 21 0 12 9 24 10 26 1 2 19 30 46 41 6 2 11 4 14 5 6 2 12 2 16 1 5-1 13-5 15-10 2-5 2-10 1-11-1-1-2-1-4-2z" fill="#fff"/>
</svg>